<mxfile host="app.diagrams.net" modified="2023-02-03T05:06:40.539Z" agent="5.0 (Windows)" etag="jHxsImCVdZ1cfNcVPLp5" version="20.8.16" type="github">
  <diagram name="Page-1" id="ry0eBWgvV4PK7jqLOO2X">
    <mxGraphModel dx="1434" dy="774" grid="1" gridSize="10" guides="1" tooltips="1" connect="1" arrows="1" fold="1" page="1" pageScale="1" pageWidth="850" pageHeight="1100" math="0" shadow="0">
      <root>
        <mxCell id="0" />
        <mxCell id="1" parent="0" />
        <mxCell id="-muf6k0OulJpvx3ZG-Tu-5" style="edgeStyle=orthogonalEdgeStyle;rounded=0;orthogonalLoop=1;jettySize=auto;html=1;entryX=0.5;entryY=0;entryDx=0;entryDy=0;" edge="1" parent="1" source="-muf6k0OulJpvx3ZG-Tu-1" target="-muf6k0OulJpvx3ZG-Tu-2">
          <mxGeometry relative="1" as="geometry" />
        </mxCell>
        <mxCell id="-muf6k0OulJpvx3ZG-Tu-1" value="Start" style="ellipse;whiteSpace=wrap;html=1;" vertex="1" parent="1">
          <mxGeometry x="340" y="30" width="120" height="80" as="geometry" />
        </mxCell>
        <mxCell id="-muf6k0OulJpvx3ZG-Tu-7" style="edgeStyle=orthogonalEdgeStyle;rounded=0;orthogonalLoop=1;jettySize=auto;html=1;" edge="1" parent="1" source="-muf6k0OulJpvx3ZG-Tu-2" target="-muf6k0OulJpvx3ZG-Tu-3">
          <mxGeometry relative="1" as="geometry" />
        </mxCell>
        <mxCell id="-muf6k0OulJpvx3ZG-Tu-2" value="Input A" style="shape=parallelogram;perimeter=parallelogramPerimeter;whiteSpace=wrap;html=1;fixedSize=1;" vertex="1" parent="1">
          <mxGeometry x="340" y="150" width="120" height="60" as="geometry" />
        </mxCell>
        <mxCell id="-muf6k0OulJpvx3ZG-Tu-8" style="edgeStyle=orthogonalEdgeStyle;rounded=0;orthogonalLoop=1;jettySize=auto;html=1;" edge="1" parent="1" source="-muf6k0OulJpvx3ZG-Tu-3">
          <mxGeometry relative="1" as="geometry">
            <mxPoint x="400" y="330" as="targetPoint" />
          </mxGeometry>
        </mxCell>
        <mxCell id="-muf6k0OulJpvx3ZG-Tu-3" value="Input B" style="shape=parallelogram;perimeter=parallelogramPerimeter;whiteSpace=wrap;html=1;fixedSize=1;" vertex="1" parent="1">
          <mxGeometry x="340" y="240" width="120" height="60" as="geometry" />
        </mxCell>
        <mxCell id="-muf6k0OulJpvx3ZG-Tu-12" style="edgeStyle=orthogonalEdgeStyle;rounded=0;orthogonalLoop=1;jettySize=auto;html=1;entryX=0.5;entryY=0;entryDx=0;entryDy=0;" edge="1" parent="1" source="-muf6k0OulJpvx3ZG-Tu-9" target="-muf6k0OulJpvx3ZG-Tu-10">
          <mxGeometry relative="1" as="geometry" />
        </mxCell>
        <mxCell id="-muf6k0OulJpvx3ZG-Tu-9" value="C = A+B" style="rounded=0;whiteSpace=wrap;html=1;" vertex="1" parent="1">
          <mxGeometry x="340" y="330" width="120" height="60" as="geometry" />
        </mxCell>
        <mxCell id="-muf6k0OulJpvx3ZG-Tu-13" style="edgeStyle=orthogonalEdgeStyle;rounded=0;orthogonalLoop=1;jettySize=auto;html=1;entryX=0.5;entryY=0;entryDx=0;entryDy=0;" edge="1" parent="1" source="-muf6k0OulJpvx3ZG-Tu-10" target="-muf6k0OulJpvx3ZG-Tu-11">
          <mxGeometry relative="1" as="geometry" />
        </mxCell>
        <mxCell id="-muf6k0OulJpvx3ZG-Tu-10" value="PRINT C" style="rounded=0;whiteSpace=wrap;html=1;" vertex="1" parent="1">
          <mxGeometry x="340" y="420" width="120" height="60" as="geometry" />
        </mxCell>
        <mxCell id="-muf6k0OulJpvx3ZG-Tu-11" value="stop" style="ellipse;whiteSpace=wrap;html=1;" vertex="1" parent="1">
          <mxGeometry x="340" y="510" width="120" height="80" as="geometry" />
        </mxCell>
      </root>
    </mxGraphModel>
  </diagram>
</mxfile>
